HIERARCHY
ROOT root
{
	OFFSET	0	13.1	24.9
	CHANNELS 6  Xposition Yposition Zposition Xrotation Yrotation Zrotation
	JOINT spine_1
	{
		OFFSET	0	9.99999	0
		CHANNELS 3  Xrotation Yrotation Zrotation
		JOINT spine_2
		{
			OFFSET	0	112	-10
			CHANNELS 3  Xrotation Yrotation Zrotation
			JOINT spine_3
			{
				OFFSET	0	206.5	19.3
				CHANNELS 3  Xrotation Yrotation Zrotation
				JOINT spine_4
				{
					OFFSET	0	110.4	14.6
					CHANNELS 3  Xrotation Yrotation Zrotation
					JOINT neck_1
					{
						OFFSET	0	71.8	-50.3
						CHANNELS 3  Xrotation Yrotation Zrotation
						JOINT neck_2
						{
							OFFSET	0	86.2	-25.8
							CHANNELS 3  Xrotation Yrotation Zrotation
							JOINT head_ee
							{
								OFFSET	0	179.8	-8.7
								CHANNELS 3  Xrotation Yrotation Zrotation
								End Site
								{
									OFFSET	1	0	0
								}
							}
						}
					}
					JOINT left_clavicle
					{
						OFFSET	-43.2	22.4	-70.8
						CHANNELS 3  Xrotation Yrotation Zrotation
						JOINT left_shoulder
						{
							OFFSET	-93.9	-5.79999	48.7
							CHANNELS 3  Xrotation Yrotation Zrotation
							JOINT left_elbow
							{
								OFFSET	-291.4	-30.8	15.2
								CHANNELS 3  Xrotation Yrotation Zrotation
								JOINT left_lowarm_twist
								{
									OFFSET	-110.7	-3.89999	13.6
									CHANNELS 3  Xrotation Yrotation Zrotation
									JOINT left_hand
									{
										OFFSET	-110.7	-3.89999	13.6
										CHANNELS 3  Xrotation Yrotation Zrotation
										JOINT left_ee
										{
											OFFSET	-80.8	-5.10001	12.1
											CHANNELS 3  Xrotation Yrotation Zrotation
											End Site
											{
												OFFSET	1	0	0
											}
										}
									}
								}
							}
						}
					}
					JOINT right_clavicle
					{
						OFFSET	43.2	22.4	-70.8
						CHANNELS 3  Xrotation Yrotation Zrotation
						JOINT right_shoulder
						{
							OFFSET	93.9	-5.79999	48.7
							CHANNELS 3  Xrotation Yrotation Zrotation
							JOINT right_elbow
							{
								OFFSET	291.4	-30.8	15.2
								CHANNELS 3  Xrotation Yrotation Zrotation
								JOINT right_lowarm_twist
								{
									OFFSET	110.7	-3.89999	13.6
									CHANNELS 3  Xrotation Yrotation Zrotation
									JOINT right_hand
									{
										OFFSET	110.7	-3.89999	13.6
										CHANNELS 3  Xrotation Yrotation Zrotation
										JOINT right_ee
										{
											OFFSET	80.8	-5.10001	12.1
											CHANNELS 3  Xrotation Yrotation Zrotation
											End Site
											{
												OFFSET	1	0	0
											}
										}
									}
								}
							}
						}
					}
				}
			}
		}
	}
	JOINT left_hip
	{
		OFFSET	-82.8	-127.5	0.300001
		CHANNELS 3  Xrotation Yrotation Zrotation
		JOINT left_knee
		{
			OFFSET	-28.2	-396.7	2.2
			CHANNELS 3  Xrotation Yrotation Zrotation
			JOINT left_ankle
			{
				OFFSET	-11.7	-411.3	35.4
				CHANNELS 3  Xrotation Yrotation Zrotation
				JOINT left_toes
				{
					OFFSET	0	-60	-88.6
					CHANNELS 3  Xrotation Yrotation Zrotation
					JOINT left_foot_ee
					{
						OFFSET	-22.5	-16.5	-42.2
						CHANNELS 3  Xrotation Yrotation Zrotation
						End Site
						{
							OFFSET	1	0	0
						}
					}
				}
			}
		}
	}
	JOINT right_hip
	{
		OFFSET	82.8	-127.5	0.300001
		CHANNELS 3  Xrotation Yrotation Zrotation
		JOINT right_knee
		{
			OFFSET	28.2	-396.7	2.2
			CHANNELS 3  Xrotation Yrotation Zrotation
			JOINT right_ankle
			{
				OFFSET	11.7	-411.3	35.4
				CHANNELS 3  Xrotation Yrotation Zrotation
				JOINT right_toes
				{
					OFFSET	0	-60	-88.6
					CHANNELS 3  Xrotation Yrotation Zrotation
					JOINT right_foot_ee
					{
						OFFSET	22.5	-16.5	-42.2
						CHANNELS 3  Xrotation Yrotation Zrotation
						End Site
						{
							OFFSET	1	0	0
						}
					}
				}
			}
		}
	}
}
MOTION
Frames: 13
Frame Time: 0.02
2579.22071108 750.337 -1527.66148337 33.2625906873 74.1296105793 -34.0187616694 -2.99366 0.0295848 1.22844 -2.99282 -0.0486382 1.22784 -2.99294 -0.367395 1.1726 -2.99481 -0.177609 1.2159 -8.05352 3.26419 0.693068 -8.05609 5.60398 1.39913 -0.0 0.0 -0.0 1.34755 2.80475 2.86042 -12.1751 -25.1575 72.9562 0.264464 -7.46385 0.0172501 -78.5485 -7.63741 5.29694 0.505416 9.23846 7.101 -0.0 0.0 -0.0 6.8521 13.8533 -12.8819 11.3379 18.5479 -69.0357 1.99042 44.591 -0.816218 56.2025 1.44775 6.74678 -5.50983 -26.7664 20.4349 0.0 0.0 0.0 5.16564 10.4382 -8.17863 -44.8783 -0.805923 6.66727 34.738 8.76009 -4.37952 -30.6651 0.0 0.0 -0.0 0.0 -0.0 6.06582 18.5861 -9.02314 -11.4082 -0.299081 -1.72235 39.7764 3.7159 4.89435 30.1632 -0.0 -0.0 0.0 0.0 0.0 
2573.3250098 753.553 -1519.75830301 34.5507458475 75.870049206 -35.5343120046 -3.14524 -0.0263709 1.36264 -3.14421 -0.113018 1.35821 -3.14581 -0.467013 1.2804 -3.148 -0.258956 1.33808 -7.75793 3.42881 -0.859499 -7.75803 7.00262 -0.120099 -0.0 0.0 -0.0 1.66312 3.12941 3.48029 -12.8844 -24.9324 73.1167 0.221208 -6.25366 0.0120841 -78.1689 -7.5891 5.30065 0.583865 9.6007 7.75097 -0.0 0.0 -0.0 7.10766 13.5972 -13.4453 13.1721 18.7561 -68.2085 2.28832 48.5755 -1.03274 55.7163 1.40774 6.69901 -5.54482 -27.4477 20.1103 0.0 0.0 0.0 7.80164 10.1568 -8.59921 -42.2002 -0.612644 6.30351 34.1098 8.9019 -4.31798 -30.3496 0.0 0.0 -0.0 0.0 -0.0 6.4312 19.732 -9.11987 -11.4938 -0.30002 -1.73545 39.5007 3.48099 4.86745 30.5452 -0.0 -0.0 0.0 0.0 0.0 
2564.23064177 754.861 -1512.18791139 43.5368199423 78.3034910923 -44.5648195893 -3.26705 -0.0561959 1.57144 -3.26569 -0.156065 1.56468 -3.26851 -0.566145 1.46702 -3.27137 -0.327381 1.538 -7.93395 2.45375 -1.92594 -7.92428 5.94134 -1.3792 -0.0 0.0 -0.0 1.42854 3.001 3.03019 -13.2997 -25.138 73.5577 0.262256 -7.40224 0.0169645 -77.9117 -7.55635 5.30299 0.707068 9.00708 8.32225 -0.0 0.0 -0.0 7.1985 12.4164 -13.7014 13.0905 20.0282 -67.6603 2.64888 52.6802 -1.31164 55.1148 1.35882 6.63946 -5.40306 -26.7932 19.7752 0.0 0.0 0.0 9.79459 12.2961 -9.00218 -39.3948 -0.428714 5.91339 33.1793 11.511 -4.2393 -30.2818 0.0 0.0 -0.0 0.0 -0.0 5.90352 21.4758 -9.24104 -10.5685 -0.288823 -1.5939 39.4961 4.56509 4.88162 30.3318 -0.0 -0.0 0.0 0.0 0.0 
2549.30038224 745.311 -1505.39652231 50.0232342875 79.5132492776 -50.6699666894 -3.51409 -0.083009 1.59984 -3.51269 -0.18463 1.59132 -3.51631 -0.607192 1.4825 -3.51919 -0.36547 1.55976 -8.9399 2.58202 -3.04831 -8.91963 6.9496 -2.40005 -0.0 0.0 -0.0 1.24884 3.20926 2.71373 -13.3024 -25.6038 74.5209 0.237167 -6.70086 0.0138845 -77.4332 -7.49539 5.30694 1.07909 7.83685 10.3135 -0.0 0.0 -0.0 6.5859 9.88057 -12.5181 16.2986 21.3457 -67.7493 3.41383 59.3888 -1.94716 54.5199 1.31106 6.58007 -5.21373 -25.641 19.5132 0.0 0.0 0.0 12.8545 13.501 -9.02163 -35.514 -0.206308 5.36013 32.0661 11.6167 -4.12521 -30.5915 0.0 0.0 -0.0 0.0 -0.0 5.78585 23.8571 -9.25319 -8.73019 -0.259804 -1.31334 39.5134 6.7261 4.91766 30.79 -0.0 -0.0 0.0 0.0 0.0 
2449.55022504 752.297 -1551.40575332 5.06773170686 74.4938045824 -3.52548206032 -0.96754 -0.274401 -0.81371 -0.967199 -0.222068 -0.829521 -0.963627 -0.0283431 -0.858261 -0.964617 -0.163529 -0.843015 -7.87073 3.87717 3.82692 -7.83465 4.51688 4.62873 -0.0 0.0 -0.0 1.86406 6.22143 4.10657 -7.71131 -31.1075 72.583 0.500835 -13.9339 0.0612019 -85.1028 -8.46477 5.18205 3.61944 1.21113 25.4777 -0.0 0.0 -0.0 -1.69211 0.992907 3.41891 6.34534 20.0882 -76.35 2.47304 50.7681 -1.17358 56.2274 1.44981 6.74922 -2.05009 -7.83192 10.0811 0.0 0.0 0.0 2.78014 19.1286 -5.17049 -7.97405 0.245257 1.19822 23.8713 2.68054 -3.20693 -22.2471 0.0 0.0 -0.0 0.0 -0.0 6.96579 28.2961 -9.45154 -4.86957 -0.169642 -0.727855 16.5592 -3.06323 2.30201 30.8764 -0.0 -0.0 0.0 0.0 0.0 
2449.14571745 752.297 -1549.5517056 5.16585645574 74.7947373953 -3.6272391667 -0.96754 -0.274401 -0.81371 -0.967199 -0.222068 -0.829521 -0.963627 -0.0283431 -0.858261 -0.964617 -0.163529 -0.843015 -7.87073 3.87717 3.82692 -7.83465 4.51688 4.62873 -0.0 0.0 -0.0 1.86406 6.22143 4.10657 -7.71131 -31.1075 72.583 0.500835 -13.9339 0.0612019 -85.1028 -8.46477 5.18205 3.61944 1.21113 25.4777 -0.0 0.0 -0.0 -1.69211 0.992907 3.41891 6.34534 20.0882 -76.35 2.47304 50.7681 -1.17358 56.2274 1.44981 6.74922 -2.05009 -7.83192 10.0811 0.0 0.0 0.0 2.78014 19.1286 -5.17049 -7.97405 0.245257 1.19822 23.8713 2.68054 -3.20693 -22.2471 0.0 0.0 -0.0 0.0 -0.0 6.96579 28.2961 -9.45154 -4.86957 -0.169642 -0.727855 16.5592 -3.06323 2.30201 30.8764 -0.0 -0.0 0.0 0.0 0.0 
2448.54863884 752.297 -1546.72486769 5.32303962979 75.2528187325 -3.789947776 -0.96754 -0.274401 -0.81371 -0.967199 -0.222068 -0.829521 -0.963627 -0.0283431 -0.858261 -0.964617 -0.163529 -0.843015 -7.87073 3.87717 3.82692 -7.83465 4.51688 4.62873 -0.0 0.0 -0.0 1.86406 6.22143 4.10657 -7.71131 -31.1075 72.583 0.500835 -13.9339 0.0612019 -85.1028 -8.46477 5.18205 3.61944 1.21113 25.4777 -0.0 0.0 -0.0 -1.69211 0.992907 3.41891 6.34534 20.0882 -76.35 2.47304 50.7681 -1.17358 56.2274 1.44981 6.74922 -2.05009 -7.83192 10.0811 0.0 0.0 0.0 2.78014 19.1286 -5.17049 -7.97405 0.245257 1.19822 23.8713 2.68054 -3.20693 -22.2471 0.0 0.0 -0.0 0.0 -0.0 6.96579 28.2961 -9.45154 -4.86957 -0.169642 -0.727855 16.5592 -3.06323 2.30201 30.8764 -0.0 -0.0 0.0 0.0 0.0 
2447.10297809 752.297 -1539.35541049 5.78188698105 76.442932094 -4.26313135368 -0.96754 -0.274401 -0.81371 -0.967199 -0.222068 -0.829521 -0.963627 -0.0283431 -0.858261 -0.964617 -0.163529 -0.843015 -7.87073 3.87717 3.82692 -7.83465 4.51688 4.62873 -0.0 0.0 -0.0 1.86406 6.22143 4.10657 -7.71131 -31.1075 72.583 0.500835 -13.9339 0.0612019 -85.1028 -8.46477 5.18205 3.61944 1.21113 25.4777 -0.0 0.0 -0.0 -1.69211 0.992907 3.41891 6.34534 20.0882 -76.35 2.47304 50.7681 -1.17358 56.2274 1.44981 6.74922 -2.05009 -7.83192 10.0811 0.0 0.0 0.0 2.78014 19.1286 -5.17049 -7.97405 0.245257 1.19822 23.8713 2.68054 -3.20693 -22.2471 0.0 0.0 -0.0 0.0 -0.0 6.96579 28.2961 -9.45154 -4.86957 -0.169642 -0.727855 16.5592 -3.06323 2.30201 30.8764 -0.0 -0.0 0.0 0.0 0.0 
2446.29470664 752.297 -1534.83390127 6.10491119046 77.1703134327 -4.59490610646 -0.96754 -0.274401 -0.81371 -0.967199 -0.222068 -0.829521 -0.963627 -0.0283431 -0.858261 -0.964617 -0.163529 -0.843015 -7.87073 3.87717 3.82692 -7.83465 4.51688 4.62873 -0.0 0.0 -0.0 1.86406 6.22143 4.10657 -7.71131 -31.1075 72.583 0.500835 -13.9339 0.0612019 -85.1028 -8.46477 5.18205 3.61944 1.21113 25.4777 -0.0 0.0 -0.0 -1.69211 0.992907 3.41891 6.34534 20.0882 -76.35 2.47304 50.7681 -1.17358 56.2274 1.44981 6.74922 -2.05009 -7.83192 10.0811 0.0 0.0 0.0 2.78014 19.1286 -5.17049 -7.97405 0.245257 1.19822 23.8713 2.68054 -3.20693 -22.2471 0.0 0.0 -0.0 0.0 -0.0 6.96579 28.2961 -9.45154 -4.86957 -0.169642 -0.727855 16.5592 -3.06323 2.30201 30.8764 -0.0 -0.0 0.0 0.0 0.0 
2446.40910774 752.297 -1535.49463509 6.05546746429 77.0641499962 -4.54418568199 -0.96754 -0.274401 -0.81371 -0.967199 -0.222068 -0.829521 -0.963627 -0.0283431 -0.858261 -0.964617 -0.163529 -0.843015 -7.87073 3.87717 3.82692 -7.83465 4.51688 4.62873 -0.0 0.0 -0.0 1.86406 6.22143 4.10657 -7.71131 -31.1075 72.583 0.500835 -13.9339 0.0612019 -85.1028 -8.46477 5.18205 3.61944 1.21113 25.4777 -0.0 0.0 -0.0 -1.69211 0.992907 3.41891 6.34534 20.0882 -76.35 2.47304 50.7681 -1.17358 56.2274 1.44981 6.74922 -2.05009 -7.83192 10.0811 0.0 0.0 0.0 2.78014 19.1286 -5.17049 -7.97405 0.245257 1.19822 23.8713 2.68054 -3.20693 -22.2471 0.0 0.0 -0.0 0.0 -0.0 6.96579 28.2961 -9.45154 -4.86957 -0.169642 -0.727855 16.5592 -3.06323 2.30201 30.8764 -0.0 -0.0 0.0 0.0 0.0 
2446.01941521 752.297 -1533.21293597 6.22970909688 77.4305763655 -4.72283326642 -0.96754 -0.274401 -0.81371 -0.967199 -0.222068 -0.829521 -0.963627 -0.0283431 -0.858261 -0.964617 -0.163529 -0.843015 -7.87073 3.87717 3.82692 -7.83465 4.51688 4.62873 -0.0 0.0 -0.0 1.86406 6.22143 4.10657 -7.71131 -31.1075 72.583 0.500835 -13.9339 0.0612019 -85.1028 -8.46477 5.18205 3.61944 1.21113 25.4777 -0.0 0.0 -0.0 -1.69211 0.992907 3.41891 6.34534 20.0882 -76.35 2.47304 50.7681 -1.17358 56.2274 1.44981 6.74922 -2.05009 -7.83192 10.0811 0.0 0.0 0.0 2.78014 19.1286 -5.17049 -7.97405 0.245257 1.19822 23.8713 2.68054 -3.20693 -22.2471 0.0 0.0 -0.0 0.0 -0.0 6.96579 28.2961 -9.45154 -4.86957 -0.169642 -0.727855 16.5592 -3.06323 2.30201 30.8764 -0.0 -0.0 0.0 0.0 0.0 
2444.99883402 752.297 -1526.76028685 6.78167202195 78.4640351446 -5.28721479174 -0.96754 -0.274401 -0.81371 -0.967199 -0.222068 -0.829521 -0.963627 -0.0283431 -0.858261 -0.964617 -0.163529 -0.843015 -7.87073 3.87717 3.82692 -7.83465 4.51688 4.62873 -0.0 0.0 -0.0 1.86406 6.22143 4.10657 -7.71131 -31.1075 72.583 0.500835 -13.9339 0.0612019 -85.1028 -8.46477 5.18205 3.61944 1.21113 25.4777 -0.0 0.0 -0.0 -1.69211 0.992907 3.41891 6.34534 20.0882 -76.35 2.47304 50.7681 -1.17358 56.2274 1.44981 6.74922 -2.05009 -7.83192 10.0811 0.0 0.0 0.0 2.78014 19.1286 -5.17049 -7.97405 0.245257 1.19822 23.8713 2.68054 -3.20693 -22.2471 0.0 0.0 -0.0 0.0 -0.0 6.96579 28.2961 -9.45154 -4.86957 -0.169642 -0.727855 16.5592 -3.06323 2.30201 30.8764 -0.0 -0.0 0.0 0.0 0.0 
2444.31662915 752.297 -1521.95563591 7.26075283084 79.2308994342 -5.77550578137 -0.96754 -0.274401 -0.81371 -0.967199 -0.222068 -0.829521 -0.963627 -0.0283431 -0.858261 -0.964617 -0.163529 -0.843015 -7.87073 3.87717 3.82692 -7.83465 4.51688 4.62873 -0.0 0.0 -0.0 1.86406 6.22143 4.10657 -7.71131 -31.1075 72.583 0.500835 -13.9339 0.0612019 -85.1028 -8.46477 5.18205 3.61944 1.21113 25.4777 -0.0 0.0 -0.0 -1.69211 0.992907 3.41891 6.34534 20.0882 -76.35 2.47304 50.7681 -1.17358 56.2274 1.44981 6.74922 -2.05009 -7.83192 10.0811 0.0 0.0 0.0 2.78014 19.1286 -5.17049 -7.97405 0.245257 1.19822 23.8713 2.68054 -3.20693 -22.2471 0.0 0.0 -0.0 0.0 -0.0 6.96579 28.2961 -9.45154 -4.86957 -0.169642 -0.727855 16.5592 -3.06323 2.30201 30.8764 -0.0 -0.0 0.0 0.0 0.0 
